HIERARCHY
ROOT root
{
	OFFSET	0	13.1	24.9
	CHANNELS 6  Xposition Yposition Zposition Xrotation Yrotation Zrotation
	JOINT spine_1
	{
		OFFSET	0	9.99999	0
		CHANNELS 3  Xrotation Yrotation Zrotation
		JOINT spine_2
		{
			OFFSET	0	112	-10
			CHANNELS 3  Xrotation Yrotation Zrotation
			JOINT spine_3
			{
				OFFSET	0	206.5	19.3
				CHANNELS 3  Xrotation Yrotation Zrotation
				JOINT spine_4
				{
					OFFSET	0	110.4	14.6
					CHANNELS 3  Xrotation Yrotation Zrotation
					JOINT neck_1
					{
						OFFSET	0	71.8	-50.3
						CHANNELS 3  Xrotation Yrotation Zrotation
						JOINT neck_2
						{
							OFFSET	0	86.2	-25.8
							CHANNELS 3  Xrotation Yrotation Zrotation
							JOINT head_ee
							{
								OFFSET	0	179.8	-8.7
								CHANNELS 3  Xrotation Yrotation Zrotation
								End Site
								{
									OFFSET	1	0	0
								}
							}
						}
					}
					JOINT left_clavicle
					{
						OFFSET	-43.2	22.4	-70.8
						CHANNELS 3  Xrotation Yrotation Zrotation
						JOINT left_shoulder
						{
							OFFSET	-93.9	-5.79999	48.7
							CHANNELS 3  Xrotation Yrotation Zrotation
							JOINT left_elbow
							{
								OFFSET	-291.4	-30.8	15.2
								CHANNELS 3  Xrotation Yrotation Zrotation
								JOINT left_lowarm_twist
								{
									OFFSET	-110.7	-3.89999	13.6
									CHANNELS 3  Xrotation Yrotation Zrotation
									JOINT left_hand
									{
										OFFSET	-110.7	-3.89999	13.6
										CHANNELS 3  Xrotation Yrotation Zrotation
										JOINT left_ee
										{
											OFFSET	-80.8	-5.10001	12.1
											CHANNELS 3  Xrotation Yrotation Zrotation
											End Site
											{
												OFFSET	1	0	0
											}
										}
									}
								}
							}
						}
					}
					JOINT right_clavicle
					{
						OFFSET	43.2	22.4	-70.8
						CHANNELS 3  Xrotation Yrotation Zrotation
						JOINT right_shoulder
						{
							OFFSET	93.9	-5.79999	48.7
							CHANNELS 3  Xrotation Yrotation Zrotation
							JOINT right_elbow
							{
								OFFSET	291.4	-30.8	15.2
								CHANNELS 3  Xrotation Yrotation Zrotation
								JOINT right_lowarm_twist
								{
									OFFSET	110.7	-3.89999	13.6
									CHANNELS 3  Xrotation Yrotation Zrotation
									JOINT right_hand
									{
										OFFSET	110.7	-3.89999	13.6
										CHANNELS 3  Xrotation Yrotation Zrotation
										JOINT right_ee
										{
											OFFSET	80.8	-5.10001	12.1
											CHANNELS 3  Xrotation Yrotation Zrotation
											End Site
											{
												OFFSET	1	0	0
											}
										}
									}
								}
							}
						}
					}
				}
			}
		}
	}
	JOINT left_hip
	{
		OFFSET	-82.8	-127.5	0.300001
		CHANNELS 3  Xrotation Yrotation Zrotation
		JOINT left_knee
		{
			OFFSET	-28.2	-396.7	2.2
			CHANNELS 3  Xrotation Yrotation Zrotation
			JOINT left_ankle
			{
				OFFSET	-11.7	-411.3	35.4
				CHANNELS 3  Xrotation Yrotation Zrotation
				JOINT left_toes
				{
					OFFSET	0	-60	-88.6
					CHANNELS 3  Xrotation Yrotation Zrotation
					JOINT left_foot_ee
					{
						OFFSET	-22.5	-16.5	-42.2
						CHANNELS 3  Xrotation Yrotation Zrotation
						End Site
						{
							OFFSET	1	0	0
						}
					}
				}
			}
		}
	}
	JOINT right_hip
	{
		OFFSET	82.8	-127.5	0.300001
		CHANNELS 3  Xrotation Yrotation Zrotation
		JOINT right_knee
		{
			OFFSET	28.2	-396.7	2.2
			CHANNELS 3  Xrotation Yrotation Zrotation
			JOINT right_ankle
			{
				OFFSET	11.7	-411.3	35.4
				CHANNELS 3  Xrotation Yrotation Zrotation
				JOINT right_toes
				{
					OFFSET	0	-60	-88.6
					CHANNELS 3  Xrotation Yrotation Zrotation
					JOINT right_foot_ee
					{
						OFFSET	22.5	-16.5	-42.2
						CHANNELS 3  Xrotation Yrotation Zrotation
						End Site
						{
							OFFSET	1	0	0
						}
					}
				}
			}
		}
	}
}
MOTION
Frames: 5
Frame Time: 0.02
391.555 721.904 -1204.45 179.229940348 -43.8223495457 172.243587157 -1.6001 0.340194 1.38194 -1.59907 0.251577 1.40078 -1.59179 -0.0879365 1.42047 -1.59458 0.137481 1.41653 -6.17615 11.47 7.15128 -6.03673 15.9936 9.35247 -0.0 0.0 -0.0 7.13382 10.617 13.5916 -32.3368 -36.627 44.2638 1.21368 -31.014 0.336756 -30.9716 -2.04609 3.33978 -4.37644 23.3345 -16.0903 -0.0 0.0 -0.0 11.1588 3.10926 -22.2464 -22.7114 26.6833 -51.6508 0.820729 22.1248 -0.160464 50.8479 1.03018 6.2029 0.635859 11.0269 0.396368 0.0 0.0 0.0 4.33321 -15.7747 -2.6906 -5.78666 0.194632 0.866378 -8.33596 29.5582 1.32715 18.2928 -0.0 -0.0 -0.0 0.0 -0.0 -0.592949 -30.2784 3.03659 6.82259 0.340439 0.990609 22.2676 -15.2291 3.03962 -3.81519 0.0 0.0 0.0 0.0 0.0 
450.889562454 719.051 -1251.19652097 174.278961381 -53.1499291618 175.41222717 -2.9021 0.468286 1.01825 -2.90161 0.402547 1.04598 -2.89329 0.117647 1.11457 -2.8949 0.292185 1.08201 -1.47963 8.47182 0.203762 -1.34897 15.0948 1.26035 -0.0 0.0 -0.0 7.48532 13.7026 14.0246 -25.4951 -40.8108 44.4877 0.959485 -25.4213 0.216422 -32.0269 -2.14585 3.43124 -2.52955 23.7522 -5.02643 -0.0 0.0 -0.0 9.17374 -1.90202 -17.8821 -13.1241 26.2434 -58.1087 0.653267 17.9322 -0.103072 45.9075 0.691646 5.66888 2.33846 15.4803 -9.12826 0.0 0.0 0.0 1.54033 -5.66754 -5.89495 1.7938 -0.0780131 -0.264192 -6.4733 29.2156 1.02546 24.0529 -0.0 -0.0 -0.0 0.0 -0.0 -0.9972 -39.2474 1.39152 2.17247 0.0955386 0.319648 13.6573 -24.1683 1.99787 -0.714215 0.0 0.0 0.0 0.0 0.0 
497.349540786 707.079 -1280.64590501 175.54819005 -48.5704495739 178.282928153 -2.7345 0.165722 0.387339 -2.73443 0.140739 0.397099 -2.73332 0.0341507 0.419915 -2.73355 0.100039 0.409252 -2.75275 7.3514 0.039382 -2.67334 13.3133 1.07727 -0.0 0.0 -0.0 7.88833 17.8828 14.3442 -23.1523 -39.8281 46.8879 0.834496 -22.4593 0.165686 -33.3401 -2.27232 3.54248 -1.87131 27.43 0.490544 -0.0 0.0 -0.0 8.17862 -4.99886 -15.7863 -10.4573 29.7153 -56.6775 0.796352 21.5286 -0.151401 44.7676 0.620189 5.54172 1.21799 3.16864 -6.86486 0.0 0.0 0.0 14.1005 -21.0363 -3.3398 -32.1107 -0.0425492 4.86375 8.97035 28.1183 -1.36296 31.5861 -0.0 -0.0 -0.0 0.0 -0.0 -2.89313 -47.7865 0.434739 9.50711 0.506418 1.36838 13.6774 -27.7623 2.04261 -2.91053 0.0 0.0 0.0 0.0 0.0 
498.784725882 707.079 -1278.61256931 175.641576966 -47.4799266048 178.408537222 -2.7345 0.165722 0.387339 -2.73443 0.140739 0.397099 -2.73332 0.0341507 0.419915 -2.73355 0.100039 0.409252 -2.75275 7.3514 0.039382 -2.67334 13.3133 1.07727 -0.0 0.0 -0.0 7.88833 17.8828 14.3442 -23.1523 -39.8281 46.8879 0.834496 -22.4593 0.165686 -33.3401 -2.27232 3.54248 -1.87131 27.43 0.490544 -0.0 0.0 -0.0 8.17862 -4.99886 -15.7863 -10.4573 29.7153 -56.6775 0.796352 21.5286 -0.151401 44.7676 0.620189 5.54172 1.21799 3.16864 -6.86486 0.0 0.0 0.0 14.1005 -21.0363 -3.3398 -32.1107 -0.0425492 4.86375 8.97035 28.1183 -1.36296 31.5861 -0.0 -0.0 -0.0 0.0 -0.0 -2.89313 -47.7865 0.434739 9.50711 0.506418 1.36838 13.6774 -27.7623 2.04261 -2.91053 0.0 0.0 0.0 0.0 0.0 
527.312071136 709.484 -1303.15490667 177.331553229 -45.4181055516 -179.252224848 -2.31708 -0.19513 -0.0650477 -2.3171 -0.190596 -0.0773326 -2.31684 -0.165271 -0.122445 -2.31682 -0.182534 -0.0948066 -1.32849 7.02871 0.140372 -1.2366 12.5305 1.00506 -0.0 0.0 -0.0 8.24289 16.5534 15.0564 -23.2368 -41.3136 48.9008 0.783973 -21.224 0.146889 -33.1893 -2.25766 3.52985 -1.10451 28.3245 5.06337 -0.0 0.0 -0.0 7.99627 -4.85425 -15.4422 -8.36265 30.2873 -55.3441 0.750645 20.3975 -0.135047 44.2192 0.586713 5.48003 0.757357 -1.23346 -5.56853 0.0 0.0 0.0 13.3376 -28.7704 -0.960774 -30.0292 0.042948 4.55578 16.8761 26.8755 -2.47778 33.7338 -0.0 -0.0 -0.0 0.0 -0.0 0.252321 -43.9241 1.6115 6.27257 0.308634 0.912291 10.5319 -24.7421 1.56148 -3.99489 0.0 0.0 0.0 0.0 0.0 
